# xmcd CD database file
#
# Track frame offsets:
#	150
#	13374
#	25563
#	39311
#	52363
#	65524
#	75697
#	88606
#	101886
#	114640
#	127474
#	140087
#	150897
#	161209
#	172273
#	183437
#	194268
#	205258
#	217843
#	230447
#	245894
#	255771
#	268659
#	280337
#
# Disc length: 3914 seconds
#
# Revision: 14
# Processed by: cddbd v1.5.2PL0 Copyright (c) Steve Scherf et al.
# Submitted via: jetAudio 7
#
DISCID=680f4818
DTITLE=Howlin' Wolf - The Greatest Blues Legends CD02 - Moanin' In TheM
DTITLE=oonlight and Howlin' Wolf
DYEAR=1900
DGENRE=Blues
TTITLE0=Moanin' At Midnight
TTITLE1=How Many More Years
TTITLE2=Smokestack Lightnin'
TTITLE3=Baby, How Long
TTITLE4=No Place To Go
TTITLE5=All Night Boogie
TTITLE6=Evil
TTITLE7=I'm Leavin' You
TTITLE8=Moanin' For My Baby
TTITLE9=I Asked For Water (She Gave Me Gasoline)
TTITLE10=Forty-Four
TTITLE11=Somebody In My Home
TTITLE12=Shake For Me
TTITLE13=The Red Rooster
TTITLE14=You'll Be Mine
TTITLE15=Who's Been Takin'
TTITLE16=Wang-Dang-Doodle
TTITLE17=Little Baby
TTITLE18=Spoonful
TTITLE19=Going Down Slow
TTITLE20=Down In The Bottom
TTITLE21=Back Door Man
TTITLE22=Howlin' For My Baby
TTITLE23=Tell Me
EXTD=
EXTT0=
EXTT1=
EXTT2=
EXTT3=
EXTT4=
EXTT5=
EXTT6=
EXTT7=
EXTT8=
EXTT9=
EXTT10=
EXTT11=
EXTT12=
EXTT13=
EXTT14=
EXTT15=
EXTT16=
EXTT17=
EXTT18=
EXTT19=
EXTT20=
EXTT21=
EXTT22=
EXTT23=
PLAYORDER=
